<svg xmlns="http://www.w3.org/2000/svg" width="412" height="405" viewBox="0 0 412 405">
<g transform="translate(0.000000,405.000000) scale(0.100000,-0.100000)"
fill="currentColor">
<path d="M2010 4029 c-41 -11 -113 -39 -160 -63 -73 -36 -680 -378 -810 -456
-25 -15 -175 -103 -335 -195 -159 -93 -315 -187 -345 -209 -185 -134 -307
-331 -346 -558 -22 -126 -14 -432 14 -563 48 -222 160 -410 320 -538 37 -30
86 -64 109 -76 l42 -21 26 55 c15 30 41 66 58 79 26 19 798 438 1157 628 47
24 216 114 375 198 525 277 565 302 650 408 58 72 119 195 146 298 32 115 32
373 0 489 -67 248 -235 432 -466 511 -69 24 -98 28 -220 31 -117 2 -152 -1
-215 -18z"/>
<path d="M2495 2265 c-5 -2 -34 -11 -64 -20 -45 -14 -344 -166 -726 -370 -44
-24 -276 -147 -515 -274 -239 -127 -445 -243 -457 -257 -28 -30 -30 -83 -6
-112 10 -11 135 -81 278 -155 143 -74 411 -212 595 -307 184 -95 400 -208 480
-250 596 -316 861 -450 936 -476 288 -96 614 -15 839 211 138 139 222 302 256
499 17 103 6 380 -19 476 -54 198 -132 338 -276 488 -125 131 -220 187 -561
332 -471 200 -534 221 -669 219 -45 0 -85 -2 -91 -4z"/>
</g>
</svg>
