<svg xmlns="http://www.w3.org/2000/svg" width="1398" height="320" viewBox="0 0 1398 320"><g fill="#B7673F" transform="scale(0.7901234567901234)">
  <path d="M50 269C19 253 0 215 0 172c0-39 18-74 53-94L185 10c42-21 77-12 100 20 26 36 17 87-15 113-6 5-12 9-20 13L72 250c-14 7-19 13-22 19Z"/>
  <path d="M80 263 226 185c23-13 40-13 59-5l52 23c49 22 75 57 75 105 0 62-41 97-88 97-20 0-38-4-56-13L74 285c-11-6-10-15 6-22Z"/></g>
<g fill="#433449" transform="translate(416 2)">
  <path fill-rule="evenodd" d="M284 84c-1 39-17 65-43 81 18 11 24 27 22 49l-6 48c-3 16 3 22 13 16l24-27 44 20c-19 34-49 45-85 45h-33c-31 0-44-11-48-39-24 27-55 39-96 39-48 0-76-30-76-75 0-61 40-108 103-132 46-17 81-12 111-6 23 4 50-3 74-19ZM179 170c-18-8-49 1-72 20-22 18-35 41-32 54 2 11 19 12 38 6 37-13 68-50 66-80Z"/>
  <path d="M305 128c9-21 28-29 51-27 28 2 42 16 45 43 26-30 53-44 90-44 50 0 78 31 72 79l-17 84c-3 15 1 23 13 23 17 0 29-19 35-38 9 16 18 27 28 32-28 25-52 36-102 36-50 0-69-23-62-68l10-54c6-31 1-42-15-43-25-2-48 22-58 58l-17 61c-9 33-34 46-76 46h-56c27-20 36-43 43-75l16-113Z"/>
  <path d="M649 1c19-2 42-1 55 5 7 3 9 10 7 20l-35 159c22-11 41-35 62-62 17-22 38-24 67-24h27c18 0 25 11 18 24-24 34-67 65-113 86 26 5 41 19 58 40 21 26 35 35 50 38 12 3 9 14-8 21-38 18-73 10-96-18l-62-76c-13 60-34 86-75 97-38 10-67 4-83-17l24-41c19 25 33 27 43 8 15-29 33-145 44-202 7-38 11-56 17-58Z"/>
  <path d="M902 16c29-7 63-2 75 12 12 14 5 34-10 44-22 15-67 16-86 4-24-16-11-52 21-60Z"/>
  <path d="M918 101c36-4 56 8 50 39l-27 125c-8 37-34 52-69 51-33-1-38-20-30-55l27-120c6-25 23-37 49-40Z"/></g>
</svg>
