<svg xmlns="http://www.w3.org/2000/svg" width="1280" height="800" viewBox="0 0 1280 800">
  <defs>
    <radialGradient id="g10" cx="30%" cy="25%" r="90%">
      <stop offset="0%" stop-color="#d946ef" stop-opacity="0.55"/>
      <stop offset="45%" stop-color="#8b5cf6" stop-opacity="0.28"/>
      <stop offset="100%" stop-color="#08080a" stop-opacity="1"/>
    </radialGradient>
    <filter id="blur"><feGaussianBlur stdDeviation="60"/></filter>
    <filter id="grain"><feTurbulence type="fractalNoise" baseFrequency="0.9" numOctaves="2" stitchTiles="stitch"/><feColorMatrix type="saturate" values="0"/><feComponentTransfer><feFuncA type="linear" slope="0.06"/></feComponentTransfer><feComposite operator="over" in2="SourceGraphic"/></filter>
  </defs>
  <rect width="1280" height="800" fill="#08080a"/>
  <rect width="1280" height="800" fill="url(#g10)"/>
  <circle cx="10" cy="241" r="278" fill="#d946ef" opacity="0.26" filter="url(#blur)"/><circle cx="303" cy="196" r="164" fill="#d946ef" opacity="0.28" filter="url(#blur)"/><circle cx="1258" cy="469" r="298" fill="#d946ef" opacity="0.22" filter="url(#blur)"/><circle cx="890" cy="592" r="228" fill="#d946ef" opacity="0.26" filter="url(#blur)"/><circle cx="498" cy="78" r="331" fill="#d946ef" opacity="0.27" filter="url(#blur)"/>
  <line x1="1243" y1="321" x2="1027" y2="742" stroke="#8b5cf6" stroke-width="1" opacity="0.18"/><circle cx="1243" cy="321" r="3" fill="#d946ef" opacity="0.6"/><line x1="346" y1="676" x2="308" y2="793" stroke="#8b5cf6" stroke-width="1" opacity="0.18"/><circle cx="346" cy="676" r="3" fill="#d946ef" opacity="0.6"/><line x1="842" y1="455" x2="837" y2="707" stroke="#8b5cf6" stroke-width="1" opacity="0.18"/><circle cx="842" cy="455" r="3" fill="#d946ef" opacity="0.6"/><line x1="706" y1="152" x2="164" y2="671" stroke="#8b5cf6" stroke-width="1" opacity="0.18"/><circle cx="706" cy="152" r="3" fill="#d946ef" opacity="0.6"/><line x1="1084" y1="300" x2="702" y2="354" stroke="#8b5cf6" stroke-width="1" opacity="0.18"/><circle cx="1084" cy="300" r="3" fill="#d946ef" opacity="0.6"/><line x1="576" y1="718" x2="854" y2="59" stroke="#8b5cf6" stroke-width="1" opacity="0.18"/><circle cx="576" cy="718" r="3" fill="#d946ef" opacity="0.6"/><line x1="1270" y1="371" x2="781" y2="586" stroke="#8b5cf6" stroke-width="1" opacity="0.18"/><circle cx="1270" cy="371" r="3" fill="#d946ef" opacity="0.6"/>
  <rect width="1280" height="800" filter="url(#grain)" opacity="0.5"/>
  <g font-family="ui-monospace, SFMono-Regular, Menlo, monospace" fill="#fafafa">
    <text x="56" y="680" font-size="20" opacity="0.55" letter-spacing="3">FORGE // GENERATED</text>
    <text x="56" y="730" font-size="52" font-weight="700" letter-spacing="-1">Prism drift</text>
    <text x="56" y="764" font-size="20" opacity="0.5">gemini-2.5-flash-image · 1280×800</text>
  </g>
  <circle cx="1210" cy="70" r="20" fill="none" stroke="#d946ef" stroke-width="2" opacity="0.8"/>
  <circle cx="1210" cy="70" r="7" fill="#d946ef"/>
</svg>