<svg xmlns="http://www.w3.org/2000/svg" width="1280" height="800" viewBox="0 0 1280 800">
  <defs>
    <radialGradient id="g14" cx="30%" cy="25%" r="90%">
      <stop offset="0%" stop-color="#ec4899" stop-opacity="0.55"/>
      <stop offset="45%" stop-color="#f43f5e" stop-opacity="0.28"/>
      <stop offset="100%" stop-color="#08080a" stop-opacity="1"/>
    </radialGradient>
    <filter id="blur"><feGaussianBlur stdDeviation="60"/></filter>
    <filter id="grain"><feTurbulence type="fractalNoise" baseFrequency="0.9" numOctaves="2" stitchTiles="stitch"/><feColorMatrix type="saturate" values="0"/><feComponentTransfer><feFuncA type="linear" slope="0.06"/></feComponentTransfer><feComposite operator="over" in2="SourceGraphic"/></filter>
  </defs>
  <rect width="1280" height="800" fill="#08080a"/>
  <rect width="1280" height="800" fill="url(#g14)"/>
  <circle cx="14" cy="271" r="323" fill="#ec4899" opacity="0.19" filter="url(#blur)"/><circle cx="247" cy="399" r="268" fill="#f43f5e" opacity="0.20" filter="url(#blur)"/><circle cx="1000" cy="96" r="146" fill="#f43f5e" opacity="0.17" filter="url(#blur)"/><circle cx="280" cy="117" r="224" fill="#ec4899" opacity="0.24" filter="url(#blur)"/><circle cx="478" cy="452" r="207" fill="#ec4899" opacity="0.12" filter="url(#blur)"/>
  <line x1="537" y1="67" x2="669" y2="268" stroke="#f43f5e" stroke-width="1" opacity="0.18"/><circle cx="537" cy="67" r="3" fill="#ec4899" opacity="0.6"/><line x1="425" y1="40" x2="1246" y2="658" stroke="#f43f5e" stroke-width="1" opacity="0.18"/><circle cx="425" cy="40" r="3" fill="#ec4899" opacity="0.6"/><line x1="95" y1="135" x2="12" y2="278" stroke="#f43f5e" stroke-width="1" opacity="0.18"/><circle cx="95" cy="135" r="3" fill="#ec4899" opacity="0.6"/><line x1="50" y1="570" x2="1126" y2="552" stroke="#f43f5e" stroke-width="1" opacity="0.18"/><circle cx="50" cy="570" r="3" fill="#ec4899" opacity="0.6"/><line x1="98" y1="614" x2="1089" y2="186" stroke="#f43f5e" stroke-width="1" opacity="0.18"/><circle cx="98" cy="614" r="3" fill="#ec4899" opacity="0.6"/><line x1="835" y1="777" x2="1195" y2="708" stroke="#f43f5e" stroke-width="1" opacity="0.18"/><circle cx="835" cy="777" r="3" fill="#ec4899" opacity="0.6"/><line x1="410" y1="691" x2="1242" y2="791" stroke="#f43f5e" stroke-width="1" opacity="0.18"/><circle cx="410" cy="691" r="3" fill="#ec4899" opacity="0.6"/>
  <rect width="1280" height="800" filter="url(#grain)" opacity="0.5"/>
  <g font-family="ui-monospace, SFMono-Regular, Menlo, monospace" fill="#fafafa">
    <text x="56" y="680" font-size="20" opacity="0.55" letter-spacing="3">FORGE // GENERATED</text>
    <text x="56" y="730" font-size="52" font-weight="700" letter-spacing="-1">Neon orchid</text>
    <text x="56" y="764" font-size="20" opacity="0.5">gemini-2.5-flash-image · 1280×800</text>
  </g>
  <circle cx="1210" cy="70" r="20" fill="none" stroke="#ec4899" stroke-width="2" opacity="0.8"/>
  <circle cx="1210" cy="70" r="7" fill="#ec4899"/>
</svg>