<svg xmlns="http://www.w3.org/2000/svg" width="1280" height="800" viewBox="0 0 1280 800">
  <defs>
    <radialGradient id="g1" cx="30%" cy="25%" r="90%">
      <stop offset="0%" stop-color="#f59e0b" stop-opacity="0.55"/>
      <stop offset="45%" stop-color="#ea580c" stop-opacity="0.28"/>
      <stop offset="100%" stop-color="#08080a" stop-opacity="1"/>
    </radialGradient>
    <filter id="blur"><feGaussianBlur stdDeviation="60"/></filter>
    <filter id="grain"><feTurbulence type="fractalNoise" baseFrequency="0.9" numOctaves="2" stitchTiles="stitch"/><feColorMatrix type="saturate" values="0"/><feComponentTransfer><feFuncA type="linear" slope="0.06"/></feComponentTransfer><feComposite operator="over" in2="SourceGraphic"/></filter>
  </defs>
  <rect width="1280" height="800" fill="#08080a"/>
  <rect width="1280" height="800" fill="url(#g1)"/>
  <circle cx="1" cy="375" r="110" fill="#ea580c" opacity="0.23" filter="url(#blur)"/><circle cx="109" cy="140" r="256" fill="#f59e0b" opacity="0.28" filter="url(#blur)"/><circle cx="237" cy="109" r="186" fill="#f59e0b" opacity="0.29" filter="url(#blur)"/><circle cx="342" cy="661" r="300" fill="#ea580c" opacity="0.18" filter="url(#blur)"/><circle cx="1182" cy="436" r="285" fill="#ea580c" opacity="0.12" filter="url(#blur)"/>
  <line x1="1232" y1="93" x2="1192" y2="608" stroke="#ea580c" stroke-width="1" opacity="0.18"/><circle cx="1232" cy="93" r="3" fill="#f59e0b" opacity="0.6"/><line x1="168" y1="108" x2="1077" y2="696" stroke="#ea580c" stroke-width="1" opacity="0.18"/><circle cx="168" cy="108" r="3" fill="#f59e0b" opacity="0.6"/><line x1="283" y1="775" x2="135" y2="472" stroke="#ea580c" stroke-width="1" opacity="0.18"/><circle cx="283" cy="775" r="3" fill="#f59e0b" opacity="0.6"/><line x1="263" y1="11" x2="240" y2="139" stroke="#ea580c" stroke-width="1" opacity="0.18"/><circle cx="263" cy="11" r="3" fill="#f59e0b" opacity="0.6"/><line x1="103" y1="394" x2="1113" y2="534" stroke="#ea580c" stroke-width="1" opacity="0.18"/><circle cx="103" cy="394" r="3" fill="#f59e0b" opacity="0.6"/><line x1="1274" y1="384" x2="407" y2="798" stroke="#ea580c" stroke-width="1" opacity="0.18"/><circle cx="1274" cy="384" r="3" fill="#f59e0b" opacity="0.6"/><line x1="7" y1="252" x2="705" y2="124" stroke="#ea580c" stroke-width="1" opacity="0.18"/><circle cx="7" cy="252" r="3" fill="#f59e0b" opacity="0.6"/>
  <rect width="1280" height="800" filter="url(#grain)" opacity="0.5"/>
  <g font-family="ui-monospace, SFMono-Regular, Menlo, monospace" fill="#fafafa">
    <text x="56" y="680" font-size="20" opacity="0.55" letter-spacing="3">FORGE // GENERATED</text>
    <text x="56" y="730" font-size="52" font-weight="700" letter-spacing="-1">Ember foundry</text>
    <text x="56" y="764" font-size="20" opacity="0.5">gemini-2.5-flash-image · 1280×800</text>
  </g>
  <circle cx="1210" cy="70" r="20" fill="none" stroke="#f59e0b" stroke-width="2" opacity="0.8"/>
  <circle cx="1210" cy="70" r="7" fill="#f59e0b"/>
</svg>