<svg xmlns="http://www.w3.org/2000/svg" width="1280" height="800" viewBox="0 0 1280 800">
  <defs>
    <radialGradient id="g11" cx="30%" cy="25%" r="90%">
      <stop offset="0%" stop-color="#38bdf8" stop-opacity="0.55"/>
      <stop offset="45%" stop-color="#818cf8" stop-opacity="0.28"/>
      <stop offset="100%" stop-color="#08080a" stop-opacity="1"/>
    </radialGradient>
    <filter id="blur"><feGaussianBlur stdDeviation="60"/></filter>
    <filter id="grain"><feTurbulence type="fractalNoise" baseFrequency="0.9" numOctaves="2" stitchTiles="stitch"/><feColorMatrix type="saturate" values="0"/><feComponentTransfer><feFuncA type="linear" slope="0.06"/></feComponentTransfer><feComposite operator="over" in2="SourceGraphic"/></filter>
  </defs>
  <rect width="1280" height="800" fill="#08080a"/>
  <rect width="1280" height="800" fill="url(#g11)"/>
  <circle cx="11" cy="49" r="94" fill="#818cf8" opacity="0.19" filter="url(#blur)"/><circle cx="609" cy="647" r="125" fill="#38bdf8" opacity="0.20" filter="url(#blur)"/><circle cx="233" cy="776" r="195" fill="#818cf8" opacity="0.26" filter="url(#blur)"/><circle cx="98" cy="673" r="162" fill="#818cf8" opacity="0.14" filter="url(#blur)"/><circle cx="1133" cy="572" r="105" fill="#38bdf8" opacity="0.29" filter="url(#blur)"/>
  <line x1="106" y1="258" x2="298" y2="223" stroke="#818cf8" stroke-width="1" opacity="0.18"/><circle cx="106" cy="258" r="3" fill="#38bdf8" opacity="0.6"/><line x1="366" y1="117" x2="223" y2="359" stroke="#818cf8" stroke-width="1" opacity="0.18"/><circle cx="366" cy="117" r="3" fill="#38bdf8" opacity="0.6"/><line x1="335" y1="775" x2="631" y2="200" stroke="#818cf8" stroke-width="1" opacity="0.18"/><circle cx="335" cy="775" r="3" fill="#38bdf8" opacity="0.6"/><line x1="1182" y1="256" x2="724" y2="642" stroke="#818cf8" stroke-width="1" opacity="0.18"/><circle cx="1182" cy="256" r="3" fill="#38bdf8" opacity="0.6"/><line x1="198" y1="379" x2="799" y2="512" stroke="#818cf8" stroke-width="1" opacity="0.18"/><circle cx="198" cy="379" r="3" fill="#38bdf8" opacity="0.6"/><line x1="641" y1="132" x2="619" y2="421" stroke="#818cf8" stroke-width="1" opacity="0.18"/><circle cx="641" cy="132" r="3" fill="#38bdf8" opacity="0.6"/><line x1="415" y1="651" x2="1216" y2="637" stroke="#818cf8" stroke-width="1" opacity="0.18"/><circle cx="415" cy="651" r="3" fill="#38bdf8" opacity="0.6"/>
  <rect width="1280" height="800" filter="url(#grain)" opacity="0.5"/>
  <g font-family="ui-monospace, SFMono-Regular, Menlo, monospace" fill="#fafafa">
    <text x="56" y="680" font-size="20" opacity="0.55" letter-spacing="3">FORGE // GENERATED</text>
    <text x="56" y="730" font-size="52" font-weight="700" letter-spacing="-1">Glacial signal</text>
    <text x="56" y="764" font-size="20" opacity="0.5">gemini-2.5-flash-image · 1280×800</text>
  </g>
  <circle cx="1210" cy="70" r="20" fill="none" stroke="#38bdf8" stroke-width="2" opacity="0.8"/>
  <circle cx="1210" cy="70" r="7" fill="#38bdf8"/>
</svg>