<svg xmlns="http://www.w3.org/2000/svg" width="1280" height="800" viewBox="0 0 1280 800">
  <defs>
    <radialGradient id="g5" cx="30%" cy="25%" r="90%">
      <stop offset="0%" stop-color="#f43f5e" stop-opacity="0.55"/>
      <stop offset="45%" stop-color="#fb7185" stop-opacity="0.28"/>
      <stop offset="100%" stop-color="#08080a" stop-opacity="1"/>
    </radialGradient>
    <filter id="blur"><feGaussianBlur stdDeviation="60"/></filter>
    <filter id="grain"><feTurbulence type="fractalNoise" baseFrequency="0.9" numOctaves="2" stitchTiles="stitch"/><feColorMatrix type="saturate" values="0"/><feComponentTransfer><feFuncA type="linear" slope="0.06"/></feComponentTransfer><feComposite operator="over" in2="SourceGraphic"/></filter>
  </defs>
  <rect width="1280" height="800" fill="#08080a"/>
  <rect width="1280" height="800" fill="url(#g5)"/>
  <circle cx="5" cy="405" r="156" fill="#fb7185" opacity="0.17" filter="url(#blur)"/><circle cx="53" cy="343" r="99" fill="#fb7185" opacity="0.20" filter="url(#blur)"/><circle cx="1260" cy="535" r="293" fill="#fb7185" opacity="0.24" filter="url(#blur)"/><circle cx="1012" cy="186" r="297" fill="#f43f5e" opacity="0.16" filter="url(#blur)"/><circle cx="1162" cy="10" r="161" fill="#fb7185" opacity="0.19" filter="url(#blur)"/>
  <line x1="525" y1="639" x2="834" y2="134" stroke="#fb7185" stroke-width="1" opacity="0.18"/><circle cx="525" cy="639" r="3" fill="#f43f5e" opacity="0.6"/><line x1="247" y1="272" x2="736" y2="561" stroke="#fb7185" stroke-width="1" opacity="0.18"/><circle cx="247" cy="272" r="3" fill="#f43f5e" opacity="0.6"/><line x1="816" y1="455" x2="590" y2="43" stroke="#fb7185" stroke-width="1" opacity="0.18"/><circle cx="816" cy="455" r="3" fill="#f43f5e" opacity="0.6"/><line x1="886" y1="429" x2="1201" y2="20" stroke="#fb7185" stroke-width="1" opacity="0.18"/><circle cx="886" cy="429" r="3" fill="#f43f5e" opacity="0.6"/><line x1="397" y1="708" x2="219" y2="365" stroke="#fb7185" stroke-width="1" opacity="0.18"/><circle cx="397" cy="708" r="3" fill="#f43f5e" opacity="0.6"/><line x1="253" y1="443" x2="748" y2="648" stroke="#fb7185" stroke-width="1" opacity="0.18"/><circle cx="253" cy="443" r="3" fill="#f43f5e" opacity="0.6"/><line x1="426" y1="572" x2="1165" y2="329" stroke="#fb7185" stroke-width="1" opacity="0.18"/><circle cx="426" cy="572" r="3" fill="#f43f5e" opacity="0.6"/>
  <rect width="1280" height="800" filter="url(#grain)" opacity="0.5"/>
  <g font-family="ui-monospace, SFMono-Regular, Menlo, monospace" fill="#fafafa">
    <text x="56" y="680" font-size="20" opacity="0.55" letter-spacing="3">FORGE // GENERATED</text>
    <text x="56" y="730" font-size="52" font-weight="700" letter-spacing="-1">Rose supernova</text>
    <text x="56" y="764" font-size="20" opacity="0.5">gemini-2.5-flash-image · 1280×800</text>
  </g>
  <circle cx="1210" cy="70" r="20" fill="none" stroke="#f43f5e" stroke-width="2" opacity="0.8"/>
  <circle cx="1210" cy="70" r="7" fill="#f43f5e"/>
</svg>