<svg xmlns="http://www.w3.org/2000/svg" width="1280" height="800" viewBox="0 0 1280 800">
  <defs>
    <radialGradient id="g2" cx="30%" cy="25%" r="90%">
      <stop offset="0%" stop-color="#8b5cf6" stop-opacity="0.55"/>
      <stop offset="45%" stop-color="#d946ef" stop-opacity="0.28"/>
      <stop offset="100%" stop-color="#08080a" stop-opacity="1"/>
    </radialGradient>
    <filter id="blur"><feGaussianBlur stdDeviation="60"/></filter>
    <filter id="grain"><feTurbulence type="fractalNoise" baseFrequency="0.9" numOctaves="2" stitchTiles="stitch"/><feColorMatrix type="saturate" values="0"/><feComponentTransfer><feFuncA type="linear" slope="0.06"/></feComponentTransfer><feComposite operator="over" in2="SourceGraphic"/></filter>
  </defs>
  <rect width="1280" height="800" fill="#08080a"/>
  <rect width="1280" height="800" fill="url(#g2)"/>
  <circle cx="2" cy="183" r="187" fill="#8b5cf6" opacity="0.16" filter="url(#blur)"/><circle cx="415" cy="591" r="216" fill="#8b5cf6" opacity="0.21" filter="url(#blur)"/><circle cx="493" cy="415" r="83" fill="#d946ef" opacity="0.11" filter="url(#blur)"/><circle cx="829" cy="742" r="234" fill="#d946ef" opacity="0.28" filter="url(#blur)"/><circle cx="537" cy="130" r="319" fill="#8b5cf6" opacity="0.13" filter="url(#blur)"/>
  <line x1="95" y1="29" x2="462" y2="89" stroke="#d946ef" stroke-width="1" opacity="0.18"/><circle cx="95" cy="29" r="3" fill="#8b5cf6" opacity="0.6"/><line x1="187" y1="349" x2="992" y2="262" stroke="#d946ef" stroke-width="1" opacity="0.18"/><circle cx="187" cy="349" r="3" fill="#8b5cf6" opacity="0.6"/><line x1="1056" y1="295" x2="1209" y2="765" stroke="#d946ef" stroke-width="1" opacity="0.18"/><circle cx="1056" cy="295" r="3" fill="#8b5cf6" opacity="0.6"/><line x1="739" y1="116" x2="800" y2="110" stroke="#d946ef" stroke-width="1" opacity="0.18"/><circle cx="739" cy="116" r="3" fill="#8b5cf6" opacity="0.6"/><line x1="497" y1="473" x2="1209" y2="691" stroke="#d946ef" stroke-width="1" opacity="0.18"/><circle cx="497" cy="473" r="3" fill="#8b5cf6" opacity="0.6"/><line x1="59" y1="599" x2="172" y2="361" stroke="#d946ef" stroke-width="1" opacity="0.18"/><circle cx="59" cy="599" r="3" fill="#8b5cf6" opacity="0.6"/><line x1="432" y1="532" x2="1140" y2="175" stroke="#d946ef" stroke-width="1" opacity="0.18"/><circle cx="432" cy="532" r="3" fill="#8b5cf6" opacity="0.6"/>
  <rect width="1280" height="800" filter="url(#grain)" opacity="0.5"/>
  <g font-family="ui-monospace, SFMono-Regular, Menlo, monospace" fill="#fafafa">
    <text x="56" y="680" font-size="20" opacity="0.55" letter-spacing="3">FORGE // GENERATED</text>
    <text x="56" y="730" font-size="52" font-weight="700" letter-spacing="-1">Violet nebula</text>
    <text x="56" y="764" font-size="20" opacity="0.5">gemini-2.5-flash-image · 1280×800</text>
  </g>
  <circle cx="1210" cy="70" r="20" fill="none" stroke="#8b5cf6" stroke-width="2" opacity="0.8"/>
  <circle cx="1210" cy="70" r="7" fill="#8b5cf6"/>
</svg>