<svg xmlns="http://www.w3.org/2000/svg" width="1280" height="800" viewBox="0 0 1280 800">
  <defs>
    <radialGradient id="g4" cx="30%" cy="25%" r="90%">
      <stop offset="0%" stop-color="#10b981" stop-opacity="0.55"/>
      <stop offset="45%" stop-color="#14b8a6" stop-opacity="0.28"/>
      <stop offset="100%" stop-color="#08080a" stop-opacity="1"/>
    </radialGradient>
    <filter id="blur"><feGaussianBlur stdDeviation="60"/></filter>
    <filter id="grain"><feTurbulence type="fractalNoise" baseFrequency="0.9" numOctaves="2" stitchTiles="stitch"/><feColorMatrix type="saturate" values="0"/><feComponentTransfer><feFuncA type="linear" slope="0.06"/></feComponentTransfer><feComposite operator="over" in2="SourceGraphic"/></filter>
  </defs>
  <rect width="1280" height="800" fill="#08080a"/>
  <rect width="1280" height="800" fill="url(#g4)"/>
  <circle cx="4" cy="597" r="339" fill="#10b981" opacity="0.24" filter="url(#blur)"/><circle cx="1027" cy="692" r="138" fill="#14b8a6" opacity="0.28" filter="url(#blur)"/><circle cx="1004" cy="229" r="136" fill="#10b981" opacity="0.20" filter="url(#blur)"/><circle cx="525" cy="105" r="103" fill="#10b981" opacity="0.28" filter="url(#blur)"/><circle cx="527" cy="317" r="127" fill="#14b8a6" opacity="0.17" filter="url(#blur)"/>
  <line x1="382" y1="702" x2="284" y2="653" stroke="#14b8a6" stroke-width="1" opacity="0.18"/><circle cx="382" cy="702" r="3" fill="#10b981" opacity="0.6"/><line x1="227" y1="31" x2="821" y2="195" stroke="#14b8a6" stroke-width="1" opacity="0.18"/><circle cx="227" cy="31" r="3" fill="#10b981" opacity="0.6"/><line x1="43" y1="135" x2="796" y2="550" stroke="#14b8a6" stroke-width="1" opacity="0.18"/><circle cx="43" cy="135" r="3" fill="#10b981" opacity="0.6"/><line x1="410" y1="325" x2="641" y2="50" stroke="#14b8a6" stroke-width="1" opacity="0.18"/><circle cx="410" cy="325" r="3" fill="#10b981" opacity="0.6"/><line x1="3" y1="629" x2="122" y2="207" stroke="#14b8a6" stroke-width="1" opacity="0.18"/><circle cx="3" cy="629" r="3" fill="#10b981" opacity="0.6"/><line x1="188" y1="228" x2="982" y2="285" stroke="#14b8a6" stroke-width="1" opacity="0.18"/><circle cx="188" cy="228" r="3" fill="#10b981" opacity="0.6"/><line x1="1" y1="292" x2="730" y2="278" stroke="#14b8a6" stroke-width="1" opacity="0.18"/><circle cx="1" cy="292" r="3" fill="#10b981" opacity="0.6"/>
  <rect width="1280" height="800" filter="url(#grain)" opacity="0.5"/>
  <g font-family="ui-monospace, SFMono-Regular, Menlo, monospace" fill="#fafafa">
    <text x="56" y="680" font-size="20" opacity="0.55" letter-spacing="3">FORGE // GENERATED</text>
    <text x="56" y="730" font-size="52" font-weight="700" letter-spacing="-1">Emerald lattice</text>
    <text x="56" y="764" font-size="20" opacity="0.5">gemini-2.5-flash-image · 1280×800</text>
  </g>
  <circle cx="1210" cy="70" r="20" fill="none" stroke="#10b981" stroke-width="2" opacity="0.8"/>
  <circle cx="1210" cy="70" r="7" fill="#10b981"/>
</svg>