<svg xmlns="http://www.w3.org/2000/svg" width="1280" height="800" viewBox="0 0 1280 800">
  <defs>
    <radialGradient id="g3" cx="30%" cy="25%" r="90%">
      <stop offset="0%" stop-color="#3b82f6" stop-opacity="0.55"/>
      <stop offset="45%" stop-color="#22d3ee" stop-opacity="0.28"/>
      <stop offset="100%" stop-color="#08080a" stop-opacity="1"/>
    </radialGradient>
    <filter id="blur"><feGaussianBlur stdDeviation="60"/></filter>
    <filter id="grain"><feTurbulence type="fractalNoise" baseFrequency="0.9" numOctaves="2" stitchTiles="stitch"/><feColorMatrix type="saturate" values="0"/><feComponentTransfer><feFuncA type="linear" slope="0.06"/></feComponentTransfer><feComposite operator="over" in2="SourceGraphic"/></filter>
  </defs>
  <rect width="1280" height="800" fill="#08080a"/>
  <rect width="1280" height="800" fill="url(#g3)"/>
  <circle cx="3" cy="790" r="263" fill="#22d3ee" opacity="0.31" filter="url(#blur)"/><circle cx="721" cy="241" r="177" fill="#3b82f6" opacity="0.13" filter="url(#blur)"/><circle cx="748" cy="722" r="240" fill="#3b82f6" opacity="0.16" filter="url(#blur)"/><circle cx="37" cy="24" r="168" fill="#3b82f6" opacity="0.17" filter="url(#blur)"/><circle cx="1172" cy="623" r="93" fill="#3b82f6" opacity="0.15" filter="url(#blur)"/>
  <line x1="239" y1="766" x2="1013" y2="371" stroke="#22d3ee" stroke-width="1" opacity="0.18"/><circle cx="239" cy="766" r="3" fill="#3b82f6" opacity="0.6"/><line x1="207" y1="590" x2="907" y2="629" stroke="#22d3ee" stroke-width="1" opacity="0.18"/><circle cx="207" cy="590" r="3" fill="#3b82f6" opacity="0.6"/><line x1="549" y1="615" x2="1003" y2="258" stroke="#22d3ee" stroke-width="1" opacity="0.18"/><circle cx="549" cy="615" r="3" fill="#3b82f6" opacity="0.6"/><line x1="1214" y1="220" x2="81" y2="80" stroke="#22d3ee" stroke-width="1" opacity="0.18"/><circle cx="1214" cy="220" r="3" fill="#3b82f6" opacity="0.6"/><line x1="890" y1="551" x2="26" y2="49" stroke="#22d3ee" stroke-width="1" opacity="0.18"/><circle cx="890" cy="551" r="3" fill="#3b82f6" opacity="0.6"/><line x1="124" y1="14" x2="1217" y2="723" stroke="#22d3ee" stroke-width="1" opacity="0.18"/><circle cx="124" cy="14" r="3" fill="#3b82f6" opacity="0.6"/><line x1="856" y1="12" x2="295" y2="227" stroke="#22d3ee" stroke-width="1" opacity="0.18"/><circle cx="856" cy="12" r="3" fill="#3b82f6" opacity="0.6"/>
  <rect width="1280" height="800" filter="url(#grain)" opacity="0.5"/>
  <g font-family="ui-monospace, SFMono-Regular, Menlo, monospace" fill="#fafafa">
    <text x="56" y="680" font-size="20" opacity="0.55" letter-spacing="3">FORGE // GENERATED</text>
    <text x="56" y="730" font-size="52" font-weight="700" letter-spacing="-1">Cyan circuit bloom</text>
    <text x="56" y="764" font-size="20" opacity="0.5">gemini-2.5-flash-image · 1280×800</text>
  </g>
  <circle cx="1210" cy="70" r="20" fill="none" stroke="#3b82f6" stroke-width="2" opacity="0.8"/>
  <circle cx="1210" cy="70" r="7" fill="#3b82f6"/>
</svg>