<svg xmlns="http://www.w3.org/2000/svg" width="1280" height="800" viewBox="0 0 1280 800">
  <defs>
    <radialGradient id="g13" cx="30%" cy="25%" r="90%">
      <stop offset="0%" stop-color="#a3e635" stop-opacity="0.55"/>
      <stop offset="45%" stop-color="#22c55e" stop-opacity="0.28"/>
      <stop offset="100%" stop-color="#08080a" stop-opacity="1"/>
    </radialGradient>
    <filter id="blur"><feGaussianBlur stdDeviation="60"/></filter>
    <filter id="grain"><feTurbulence type="fractalNoise" baseFrequency="0.9" numOctaves="2" stitchTiles="stitch"/><feColorMatrix type="saturate" values="0"/><feComponentTransfer><feFuncA type="linear" slope="0.06"/></feComponentTransfer><feComposite operator="over" in2="SourceGraphic"/></filter>
  </defs>
  <rect width="1280" height="800" fill="#08080a"/>
  <rect width="1280" height="800" fill="url(#g13)"/>
  <circle cx="13" cy="463" r="247" fill="#22c55e" opacity="0.26" filter="url(#blur)"/><circle cx="1221" cy="748" r="307" fill="#22c55e" opacity="0.28" filter="url(#blur)"/><circle cx="745" cy="589" r="249" fill="#22c55e" opacity="0.12" filter="url(#blur)"/><circle cx="1073" cy="35" r="290" fill="#22c55e" opacity="0.13" filter="url(#blur)"/><circle cx="1123" cy="759" r="173" fill="#22c55e" opacity="0.10" filter="url(#blur)"/>
  <line x1="393" y1="131" x2="119" y2="787" stroke="#22c55e" stroke-width="1" opacity="0.18"/><circle cx="393" cy="131" r="3" fill="#a3e635" opacity="0.6"/><line x1="406" y1="599" x2="52" y2="292" stroke="#22c55e" stroke-width="1" opacity="0.18"/><circle cx="406" cy="599" r="3" fill="#a3e635" opacity="0.6"/><line x1="601" y1="615" x2="218" y2="785" stroke="#22c55e" stroke-width="1" opacity="0.18"/><circle cx="601" cy="615" r="3" fill="#a3e635" opacity="0.6"/><line x1="854" y1="465" x2="565" y2="582" stroke="#22c55e" stroke-width="1" opacity="0.18"/><circle cx="854" cy="465" r="3" fill="#a3e635" opacity="0.6"/><line x1="984" y1="535" x2="992" y2="28" stroke="#22c55e" stroke-width="1" opacity="0.18"/><circle cx="984" cy="535" r="3" fill="#a3e635" opacity="0.6"/><line x1="770" y1="562" x2="150" y2="346" stroke="#22c55e" stroke-width="1" opacity="0.18"/><circle cx="770" cy="562" r="3" fill="#a3e635" opacity="0.6"/><line x1="1265" y1="411" x2="807" y2="740" stroke="#22c55e" stroke-width="1" opacity="0.18"/><circle cx="1265" cy="411" r="3" fill="#a3e635" opacity="0.6"/>
  <rect width="1280" height="800" filter="url(#grain)" opacity="0.5"/>
  <g font-family="ui-monospace, SFMono-Regular, Menlo, monospace" fill="#fafafa">
    <text x="56" y="680" font-size="20" opacity="0.55" letter-spacing="3">FORGE // GENERATED</text>
    <text x="56" y="730" font-size="52" font-weight="700" letter-spacing="-1">Bioluminescent grid</text>
    <text x="56" y="764" font-size="20" opacity="0.5">gemini-2.5-flash-image · 1280×800</text>
  </g>
  <circle cx="1210" cy="70" r="20" fill="none" stroke="#a3e635" stroke-width="2" opacity="0.8"/>
  <circle cx="1210" cy="70" r="7" fill="#a3e635"/>
</svg>