<svg xmlns="http://www.w3.org/2000/svg" width="1280" height="800" viewBox="0 0 1280 800">
  <defs>
    <radialGradient id="g15" cx="30%" cy="25%" r="90%">
      <stop offset="0%" stop-color="#64748b" stop-opacity="0.55"/>
      <stop offset="45%" stop-color="#3b82f6" stop-opacity="0.28"/>
      <stop offset="100%" stop-color="#08080a" stop-opacity="1"/>
    </radialGradient>
    <filter id="blur"><feGaussianBlur stdDeviation="60"/></filter>
    <filter id="grain"><feTurbulence type="fractalNoise" baseFrequency="0.9" numOctaves="2" stitchTiles="stitch"/><feColorMatrix type="saturate" values="0"/><feComponentTransfer><feFuncA type="linear" slope="0.06"/></feComponentTransfer><feComposite operator="over" in2="SourceGraphic"/></filter>
  </defs>
  <rect width="1280" height="800" fill="#08080a"/>
  <rect width="1280" height="800" fill="url(#g15)"/>
  <circle cx="15" cy="78" r="139" fill="#3b82f6" opacity="0.12" filter="url(#blur)"/><circle cx="553" cy="49" r="229" fill="#3b82f6" opacity="0.13" filter="url(#blur)"/><circle cx="1256" cy="403" r="303" fill="#64748b" opacity="0.21" filter="url(#blur)"/><circle cx="768" cy="198" r="158" fill="#64748b" opacity="0.13" filter="url(#blur)"/><circle cx="1113" cy="146" r="241" fill="#64748b" opacity="0.14" filter="url(#blur)"/>
  <line x1="680" y1="4" x2="1220" y2="550" stroke="#3b82f6" stroke-width="1" opacity="0.18"/><circle cx="680" cy="4" r="3" fill="#64748b" opacity="0.6"/><line x1="445" y1="281" x2="1161" y2="225" stroke="#3b82f6" stroke-width="1" opacity="0.18"/><circle cx="445" cy="281" r="3" fill="#64748b" opacity="0.6"/><line x1="868" y1="455" x2="1085" y2="571" stroke="#3b82f6" stroke-width="1" opacity="0.18"/><circle cx="868" cy="455" r="3" fill="#64748b" opacity="0.6"/><line x1="526" y1="674" x2="406" y2="522" stroke="#3b82f6" stroke-width="1" opacity="0.18"/><circle cx="526" cy="674" r="3" fill="#64748b" opacity="0.6"/><line x1="491" y1="692" x2="1186" y2="343" stroke="#3b82f6" stroke-width="1" opacity="0.18"/><circle cx="491" cy="692" r="3" fill="#64748b" opacity="0.6"/><line x1="900" y1="192" x2="960" y2="271" stroke="#3b82f6" stroke-width="1" opacity="0.18"/><circle cx="900" cy="192" r="3" fill="#64748b" opacity="0.6"/><line x1="834" y1="171" x2="397" y2="42" stroke="#3b82f6" stroke-width="1" opacity="0.18"/><circle cx="834" cy="171" r="3" fill="#64748b" opacity="0.6"/>
  <rect width="1280" height="800" filter="url(#grain)" opacity="0.5"/>
  <g font-family="ui-monospace, SFMono-Regular, Menlo, monospace" fill="#fafafa">
    <text x="56" y="680" font-size="20" opacity="0.55" letter-spacing="3">FORGE // GENERATED</text>
    <text x="56" y="730" font-size="52" font-weight="700" letter-spacing="-1">Steel monolith</text>
    <text x="56" y="764" font-size="20" opacity="0.5">gemini-2.5-flash-image · 1280×800</text>
  </g>
  <circle cx="1210" cy="70" r="20" fill="none" stroke="#64748b" stroke-width="2" opacity="0.8"/>
  <circle cx="1210" cy="70" r="7" fill="#64748b"/>
</svg>