<svg xmlns="http://www.w3.org/2000/svg" width="1280" height="800" viewBox="0 0 1280 800">
  <defs>
    <radialGradient id="g16" cx="30%" cy="25%" r="90%">
      <stop offset="0%" stop-color="#fbbf24" stop-opacity="0.55"/>
      <stop offset="45%" stop-color="#f97316" stop-opacity="0.28"/>
      <stop offset="100%" stop-color="#08080a" stop-opacity="1"/>
    </radialGradient>
    <filter id="blur"><feGaussianBlur stdDeviation="60"/></filter>
    <filter id="grain"><feTurbulence type="fractalNoise" baseFrequency="0.9" numOctaves="2" stitchTiles="stitch"/><feColorMatrix type="saturate" values="0"/><feComponentTransfer><feFuncA type="linear" slope="0.06"/></feComponentTransfer><feComposite operator="over" in2="SourceGraphic"/></filter>
  </defs>
  <rect width="1280" height="800" fill="#08080a"/>
  <rect width="1280" height="800" fill="url(#g16)"/>
  <circle cx="16" cy="685" r="216" fill="#fbbf24" opacity="0.27" filter="url(#blur)"/><circle cx="859" cy="500" r="190" fill="#f97316" opacity="0.27" filter="url(#blur)"/><circle cx="231" cy="709" r="200" fill="#f97316" opacity="0.25" filter="url(#blur)"/><circle cx="1255" cy="279" r="92" fill="#f97316" opacity="0.23" filter="url(#blur)"/><circle cx="468" cy="639" r="275" fill="#f97316" opacity="0.16" filter="url(#blur)"/>
  <line x1="824" y1="740" x2="490" y2="31" stroke="#f97316" stroke-width="1" opacity="0.18"/><circle cx="824" cy="740" r="3" fill="#fbbf24" opacity="0.6"/><line x1="465" y1="522" x2="1075" y2="591" stroke="#f97316" stroke-width="1" opacity="0.18"/><circle cx="465" cy="522" r="3" fill="#fbbf24" opacity="0.6"/><line x1="361" y1="775" x2="879" y2="63" stroke="#f97316" stroke-width="1" opacity="0.18"/><circle cx="361" cy="775" r="3" fill="#fbbf24" opacity="0.6"/><line x1="1001" y1="779" x2="966" y2="493" stroke="#f97316" stroke-width="1" opacity="0.18"/><circle cx="1001" cy="779" r="3" fill="#fbbf24" opacity="0.6"/><line x1="885" y1="771" x2="2" y2="501" stroke="#f97316" stroke-width="1" opacity="0.18"/><circle cx="885" cy="771" r="3" fill="#fbbf24" opacity="0.6"/><line x1="964" y1="407" x2="725" y2="633" stroke="#f97316" stroke-width="1" opacity="0.18"/><circle cx="964" cy="407" r="3" fill="#fbbf24" opacity="0.6"/><line x1="1259" y1="451" x2="832" y2="94" stroke="#f97316" stroke-width="1" opacity="0.18"/><circle cx="1259" cy="451" r="3" fill="#fbbf24" opacity="0.6"/>
  <rect width="1280" height="800" filter="url(#grain)" opacity="0.5"/>
  <g font-family="ui-monospace, SFMono-Regular, Menlo, monospace" fill="#fafafa">
    <text x="56" y="680" font-size="20" opacity="0.55" letter-spacing="3">FORGE // GENERATED</text>
    <text x="56" y="730" font-size="52" font-weight="700" letter-spacing="-1">Gilded forge</text>
    <text x="56" y="764" font-size="20" opacity="0.5">gemini-2.5-flash-image · 1280×800</text>
  </g>
  <circle cx="1210" cy="70" r="20" fill="none" stroke="#fbbf24" stroke-width="2" opacity="0.8"/>
  <circle cx="1210" cy="70" r="7" fill="#fbbf24"/>
</svg>