<svg xmlns="http://www.w3.org/2000/svg" width="1280" height="800" viewBox="0 0 1280 800">
  <defs>
    <radialGradient id="g6" cx="30%" cy="25%" r="90%">
      <stop offset="0%" stop-color="#6366f1" stop-opacity="0.55"/>
      <stop offset="45%" stop-color="#a855f7" stop-opacity="0.28"/>
      <stop offset="100%" stop-color="#08080a" stop-opacity="1"/>
    </radialGradient>
    <filter id="blur"><feGaussianBlur stdDeviation="60"/></filter>
    <filter id="grain"><feTurbulence type="fractalNoise" baseFrequency="0.9" numOctaves="2" stitchTiles="stitch"/><feColorMatrix type="saturate" values="0"/><feComponentTransfer><feFuncA type="linear" slope="0.06"/></feComponentTransfer><feComposite operator="over" in2="SourceGraphic"/></filter>
  </defs>
  <rect width="1280" height="800" fill="#08080a"/>
  <rect width="1280" height="800" fill="url(#g6)"/>
  <circle cx="6" cy="212" r="232" fill="#6366f1" opacity="0.32" filter="url(#blur)"/><circle cx="359" cy="793" r="320" fill="#a855f7" opacity="0.13" filter="url(#blur)"/><circle cx="235" cy="42" r="190" fill="#6366f1" opacity="0.28" filter="url(#blur)"/><circle cx="220" cy="267" r="231" fill="#a855f7" opacity="0.27" filter="url(#blur)"/><circle cx="517" cy="504" r="195" fill="#6366f1" opacity="0.20" filter="url(#blur)"/>
  <line x1="669" y1="575" x2="105" y2="416" stroke="#a855f7" stroke-width="1" opacity="0.18"/><circle cx="669" cy="575" r="3" fill="#6366f1" opacity="0.6"/><line x1="267" y1="513" x2="650" y2="128" stroke="#a855f7" stroke-width="1" opacity="0.18"/><circle cx="267" cy="513" r="3" fill="#6366f1" opacity="0.6"/><line x1="309" y1="775" x2="383" y2="336" stroke="#a855f7" stroke-width="1" opacity="0.18"/><circle cx="309" cy="775" r="3" fill="#6366f1" opacity="0.6"/><line x1="82" y1="534" x2="482" y2="791" stroke="#a855f7" stroke-width="1" opacity="0.18"/><circle cx="82" cy="534" r="3" fill="#6366f1" opacity="0.6"/><line x1="790" y1="786" x2="316" y2="523" stroke="#a855f7" stroke-width="1" opacity="0.18"/><circle cx="790" cy="786" r="3" fill="#6366f1" opacity="0.6"/><line x1="318" y1="658" x2="513" y2="210" stroke="#a855f7" stroke-width="1" opacity="0.18"/><circle cx="318" cy="658" r="3" fill="#6366f1" opacity="0.6"/><line x1="851" y1="52" x2="321" y2="381" stroke="#a855f7" stroke-width="1" opacity="0.18"/><circle cx="851" cy="52" r="3" fill="#6366f1" opacity="0.6"/>
  <rect width="1280" height="800" filter="url(#grain)" opacity="0.5"/>
  <g font-family="ui-monospace, SFMono-Regular, Menlo, monospace" fill="#fafafa">
    <text x="56" y="680" font-size="20" opacity="0.55" letter-spacing="3">FORGE // GENERATED</text>
    <text x="56" y="730" font-size="52" font-weight="700" letter-spacing="-1">Indigo cathedral</text>
    <text x="56" y="764" font-size="20" opacity="0.5">gemini-2.5-flash-image · 1280×800</text>
  </g>
  <circle cx="1210" cy="70" r="20" fill="none" stroke="#6366f1" stroke-width="2" opacity="0.8"/>
  <circle cx="1210" cy="70" r="7" fill="#6366f1"/>
</svg>