<svg xmlns="http://www.w3.org/2000/svg" width="1280" height="800" viewBox="0 0 1280 800">
  <defs>
    <radialGradient id="g7" cx="30%" cy="25%" r="90%">
      <stop offset="0%" stop-color="#0ea5e9" stop-opacity="0.55"/>
      <stop offset="45%" stop-color="#6366f1" stop-opacity="0.28"/>
      <stop offset="100%" stop-color="#08080a" stop-opacity="1"/>
    </radialGradient>
    <filter id="blur"><feGaussianBlur stdDeviation="60"/></filter>
    <filter id="grain"><feTurbulence type="fractalNoise" baseFrequency="0.9" numOctaves="2" stitchTiles="stitch"/><feColorMatrix type="saturate" values="0"/><feComponentTransfer><feFuncA type="linear" slope="0.06"/></feComponentTransfer><feComposite operator="over" in2="SourceGraphic"/></filter>
  </defs>
  <rect width="1280" height="800" fill="#08080a"/>
  <rect width="1280" height="800" fill="url(#g7)"/>
  <circle cx="7" cy="19" r="309" fill="#6366f1" opacity="0.25" filter="url(#blur)"/><circle cx="665" cy="444" r="281" fill="#6366f1" opacity="0.28" filter="url(#blur)"/><circle cx="491" cy="349" r="87" fill="#0ea5e9" opacity="0.32" filter="url(#blur)"/><circle cx="707" cy="348" r="165" fill="#6366f1" opacity="0.16" filter="url(#blur)"/><circle cx="1152" cy="197" r="229" fill="#0ea5e9" opacity="0.22" filter="url(#blur)"/>
  <line x1="812" y1="512" x2="655" y2="697" stroke="#6366f1" stroke-width="1" opacity="0.18"/><circle cx="812" cy="512" r="3" fill="#0ea5e9" opacity="0.6"/><line x1="287" y1="754" x2="565" y2="494" stroke="#6366f1" stroke-width="1" opacity="0.18"/><circle cx="287" cy="754" r="3" fill="#0ea5e9" opacity="0.6"/><line x1="1082" y1="295" x2="177" y2="629" stroke="#6366f1" stroke-width="1" opacity="0.18"/><circle cx="1082" cy="295" r="3" fill="#0ea5e9" opacity="0.6"/><line x1="558" y1="638" x2="1042" y2="761" stroke="#6366f1" stroke-width="1" opacity="0.18"/><circle cx="558" cy="638" r="3" fill="#0ea5e9" opacity="0.6"/><line x1="1184" y1="65" x2="412" y2="681" stroke="#6366f1" stroke-width="1" opacity="0.18"/><circle cx="1184" cy="65" r="3" fill="#0ea5e9" opacity="0.6"/><line x1="382" y1="73" x2="278" y2="572" stroke="#6366f1" stroke-width="1" opacity="0.18"/><circle cx="382" cy="73" r="3" fill="#0ea5e9" opacity="0.6"/><line x1="1276" y1="332" x2="756" y2="432" stroke="#6366f1" stroke-width="1" opacity="0.18"/><circle cx="1276" cy="332" r="3" fill="#0ea5e9" opacity="0.6"/>
  <rect width="1280" height="800" filter="url(#grain)" opacity="0.5"/>
  <g font-family="ui-monospace, SFMono-Regular, Menlo, monospace" fill="#fafafa">
    <text x="56" y="680" font-size="20" opacity="0.55" letter-spacing="3">FORGE // GENERATED</text>
    <text x="56" y="730" font-size="52" font-weight="700" letter-spacing="-1">Skyline synthwave</text>
    <text x="56" y="764" font-size="20" opacity="0.5">gemini-2.5-flash-image · 1280×800</text>
  </g>
  <circle cx="1210" cy="70" r="20" fill="none" stroke="#0ea5e9" stroke-width="2" opacity="0.8"/>
  <circle cx="1210" cy="70" r="7" fill="#0ea5e9"/>
</svg>